<svg width="70" height="26" viewBox="0 0 70 26" fill="none" xmlns="http://www.w3.org/2000/svg">
<path d="M0.25 12.3824H4.70887C4.75194 13.2658 5.07978 13.9278 5.69247 14.3685C6.34816 14.8102 7.22212 15.0305 8.31536 15.0305C9.10225 15.0305 9.77943 14.8764 10.3481 14.5671C10.8726 14.2588 11.1349 13.8389 11.1349 13.3092C11.1349 12.5147 10.2169 11.9189 8.38093 11.5217C7.59403 11.3893 7.00391 11.2569 6.6105 11.1245C4.29296 10.5514 2.74182 9.86657 1.95492 9.07215C1.07996 8.27765 0.643483 7.21843 0.643483 5.89432C0.643483 4.2175 1.27666 2.82719 2.54504 1.72339C3.85648 0.708594 5.56134 0.200684 7.6596 0.200684C9.93206 0.200684 11.7466 0.708594 13.1021 1.72339C14.3694 2.82712 15.0467 4.26193 15.1348 6.02672H12.3152C11.4843 6.02672 10.8501 5.65224 10.4136 4.90122C10.2384 4.72534 10.0633 4.54844 9.88907 4.37161C9.36452 3.9744 8.6432 3.77579 7.72524 3.77579C6.85027 3.77579 6.19459 3.9082 5.75811 4.173C5.3647 4.43781 5.168 4.83502 5.168 5.36471C5.168 6.07122 6.30423 6.66704 8.5777 7.15222C8.83998 7.24115 9.06957 7.30735 9.26614 7.35083C9.46299 7.39533 9.64837 7.41703 9.82358 7.41703C12.053 7.99114 13.6042 8.65316 14.4792 9.40315C15.309 10.1976 15.725 11.2569 15.725 12.581C15.725 14.5236 15.0253 16.0236 13.6268 17.0829C12.3153 18.0542 10.3482 18.5394 7.72531 18.5394C5.23357 18.5394 3.37507 18.0325 2.1517 17.0167C0.88318 16.0019 0.25 14.5236 0.25 12.581V12.3824Z" fill="white"/>
<path d="M28.9128 12.7796H32.1914C31.7098 14.6333 30.7919 16.0463 29.4374 17.0167C28.0819 18.0325 26.377 18.5394 24.3228 18.5394C21.8311 18.5394 19.8855 17.7232 18.4869 16.0898C17.0874 14.5009 16.3887 12.2282 16.3887 9.27075C16.3887 6.44666 17.0659 4.2392 18.4214 2.65029C19.8199 1.0179 21.7655 0.200684 24.2573 0.200684C26.8801 0.200684 28.9128 0.995177 30.3554 2.58409C31.7539 4.2175 32.4537 6.49013 32.4537 9.40315C32.4537 9.58006 32.4537 9.73416 32.4537 9.86657C32.4537 9.99897 32.4537 10.0879 32.4537 10.1314C32.4537 10.3527 32.4312 10.5069 32.3881 10.5948H21.0443C21.0873 11.9634 21.4152 12.9782 22.0279 13.6402C22.5955 14.3467 23.4479 14.6995 24.5852 14.6995C25.328 14.6995 25.9622 14.5454 26.4867 14.2361C26.6179 14.1926 26.7377 14.1151 26.8473 14.0044C26.9559 13.8947 27.0768 13.7727 27.208 13.6402C27.251 13.5078 27.4149 13.3319 27.6999 13.1106C27.9835 12.8903 28.3883 12.7796 28.9128 12.7796ZM21.0443 7.61564H27.7325C27.6445 6.42393 27.3391 5.54153 26.8145 4.96742C26.2459 4.34983 25.4375 4.04053 24.3883 4.04053C23.4263 4.04053 22.6394 4.34983 22.0277 4.96742C21.4152 5.58596 21.0873 6.46836 21.0443 7.61564Z" fill="white"/>
<path d="M33.5107 18.2081V9.66772C33.5107 7.94641 33.7617 6.50133 34.2647 5.33126C34.7668 4.16242 35.4554 3.22417 36.3303 2.51758C37.1602 1.85556 38.1336 1.37037 39.2482 1.06107C40.363 0.752782 41.5107 0.597656 42.6908 0.597656C42.7778 0.597656 42.8874 0.597656 43.0187 0.597656C43.1497 0.597656 43.2584 0.597656 43.3467 0.597656V5.29819H41.8382C40.5698 5.29819 39.6305 5.6075 39.0188 6.22509C38.4061 6.8437 38.1008 7.814 38.1008 9.13811V18.2082H33.5107V18.2081Z" fill="white"/>
<path d="M44.9893 0.597656H47.3499C47.9614 0.597656 48.486 0.818984 48.9236 1.25967C49.3601 1.70138 49.5793 2.23099 49.5793 2.84858V18.2081H44.9893V0.597656Z" fill="white"/>
<path d="M53.242 18.3099C54.6857 18.3099 55.8561 17.1282 55.8561 15.6706C55.8561 14.2129 54.6857 13.0312 53.242 13.0312C51.7983 13.0312 50.6279 14.2129 50.6279 15.6706C50.6279 17.1282 51.7983 18.3099 53.242 18.3099Z" fill="white"/>
<path d="M65.7312 2.58402C64.2889 0.995104 62.2561 0.200684 59.6332 0.200684C57.1415 0.200684 55.1959 1.0179 53.7975 2.65029C52.4419 4.2392 51.7646 6.44673 51.7646 9.27075C51.7646 10.4494 51.8775 11.5174 52.0996 12.4786C52.5182 12.2892 52.9809 12.1814 53.4693 12.1814C55.3223 12.1814 56.8245 13.6981 56.8245 15.5691C56.8245 16.4088 56.5202 17.1756 56.0191 17.7675C57.0735 18.2821 58.3001 18.5395 59.6987 18.5395C61.7531 18.5395 63.4579 18.0326 64.8135 17.0168C66.1678 16.0465 67.0857 14.6334 67.5673 12.7797H64.2889C63.7644 12.7797 63.3597 12.8904 63.0758 13.1107C62.7909 13.332 62.6269 13.5079 62.5839 13.6403C62.453 13.7727 62.332 13.8948 62.2233 14.0045C62.1136 14.1152 61.9938 14.1927 61.8627 14.2362C61.3381 14.5455 60.704 14.6996 59.961 14.6996C58.8238 14.6996 57.9714 14.3468 57.4038 13.6403C56.7911 12.9783 56.4632 11.9635 56.4204 10.5949H67.7641C67.8072 10.507 67.8296 10.3528 67.8296 10.1314C67.8296 10.088 67.8296 9.99904 67.8296 9.86664C67.8296 9.73424 67.8296 9.58006 67.8296 9.40323C67.8296 6.49013 67.1299 4.21743 65.7312 2.58402ZM56.4203 7.61564C56.4631 6.46843 56.7911 5.58603 57.4038 4.96742C58.0153 4.34983 58.8022 4.04053 59.7644 4.04053C60.8135 4.04053 61.6219 4.34983 62.1906 4.96742C62.7152 5.54153 63.0203 6.42393 63.1084 7.61564H56.4203Z" fill="white"/>
<path d="M54.1721 20.4597V22.9184C54.1721 23.9364 53.6458 24.4422 52.5995 24.4358C51.5594 24.4167 51.0396 23.8468 51.0396 22.7199C51.0396 21.5675 51.4834 20.9784 52.3776 20.9464C52.7961 20.9464 53.1194 21.1192 53.3351 21.4714V20.0308H53.7536C53.982 20.0308 54.1721 20.2294 54.1721 20.4597ZM51.9083 22.6815C51.9019 23.3666 52.1302 23.7124 52.6122 23.7124C53.0942 23.7124 53.3352 23.3666 53.3352 22.6815C53.3161 22.0285 53.0816 21.7083 52.6249 21.7083C52.1684 21.7084 51.9336 22.0285 51.9083 22.6815Z" fill="white"/>
<path d="M56.1128 24.4614C55.0981 24.4293 54.5908 23.834 54.5908 22.6814C54.5908 21.5289 55.1045 20.9526 56.1255 20.9463C57.1908 20.9463 57.6918 21.6058 57.6284 22.9312H55.4596C55.4913 23.4497 55.7132 23.7123 56.1255 23.7123C56.3221 23.7123 56.5061 23.629 56.6709 23.4689C56.7468 23.3857 56.842 23.3473 56.9562 23.3473H57.5776C57.3936 24.0643 56.9371 24.4614 56.1128 24.4614ZM55.4721 22.3228H56.7341C56.6835 21.8746 56.4743 21.6441 56.1127 21.6441C55.7513 21.6441 55.5356 21.8746 55.4721 22.3228Z" fill="white"/>
<path d="M59.5503 23.7699C59.9053 23.7699 60.0829 23.6675 60.0829 23.4497C60.0829 23.2769 59.7913 23.136 59.2141 23.0336C58.4723 22.8991 58.0917 22.5662 58.0853 22.0348C58.0853 21.3048 58.656 20.959 59.4234 20.9463C59.8547 20.9463 60.1971 21.0423 60.4507 21.2344C60.6979 21.4329 60.8313 21.7082 60.8501 22.0604H60.3176C60.121 22.0539 59.9941 21.9835 59.9434 21.8491C59.8862 21.7019 59.7151 21.6186 59.4359 21.6186C59.1062 21.6186 58.9413 21.7082 58.9413 21.8811C58.9413 22.054 59.157 22.1884 59.5946 22.2716C60.1653 22.3869 60.5395 22.5342 60.7234 22.7071C60.8818 22.8736 60.958 23.0784 60.958 23.3089C60.958 24.1412 60.3112 24.4486 59.4233 24.4486C58.954 24.4486 58.599 24.3462 58.3706 24.1476C58.117 23.9557 57.9902 23.661 57.9902 23.2705H58.8525C58.8718 23.6418 59.138 23.7699 59.5503 23.7699Z" fill="white"/>
<path d="M61.8267 20.0308C62.1058 20.0308 62.239 20.1715 62.2326 20.4469V20.6966H61.3892V20.0308H61.8267ZM61.8267 20.9975C62.0994 20.9975 62.2326 21.132 62.2326 21.4073V24.3846H61.3892V20.9976H61.8267V20.9975Z" fill="white"/>
<path d="M62.7212 22.6945C62.7212 21.5676 63.2411 21.0041 64.2811 20.9849C65.3274 20.9785 65.8538 21.4779 65.8538 22.496V24.5C65.8538 25.3516 65.3212 25.7805 64.2494 25.7998C63.4885 25.7998 63.0066 25.4412 62.8099 24.724H63.7421C63.7991 24.9674 63.9957 25.0826 64.3445 25.0826C64.7884 25.0826 65.0167 24.8202 65.0167 24.2951C65.0167 24.2951 65.0167 24.3016 65.0167 23.9494C64.801 24.2823 64.4777 24.4489 64.0592 24.4489C63.165 24.4489 62.7212 23.8598 62.7212 22.6945ZM65.0168 22.7201C65.023 22.035 64.7884 21.6957 64.3065 21.6957C63.8245 21.6957 63.59 22.0351 63.59 22.7201C63.6091 23.3731 63.8372 23.6997 64.2939 23.6997C64.7506 23.6997 64.9915 23.3731 65.0168 22.7201Z" fill="white"/>
<path d="M68.7395 24.3846C68.4603 24.3654 68.321 24.2309 68.321 23.962V22.2204C68.3018 21.8684 68.1115 21.6954 67.7373 21.6954C67.3632 21.6954 67.173 21.8684 67.1666 22.2204V24.3846H66.3105V22.3933C66.3105 21.4265 66.7925 20.9463 67.75 20.9463C68.7077 20.9463 69.1771 21.4265 69.1706 22.3933V24.3846H68.7395Z" fill="white"/>
</svg>
