<svg width="52" height="52" viewBox="0 0 52 52" fill="none" xmlns="http://www.w3.org/2000/svg">
<rect x="32.7847" y="31" width="17" height="17" transform="rotate(9.42717 32.7847 31)" fill="black"/>
<rect width="52" height="52" rx="26" fill="black"/>
<path d="M19.5 36C20.8807 36 22 34.6569 22 33C22 31.3431 20.8807 30 19.5 30C18.1193 30 17 31.3431 17 33C17 34.6569 18.1193 36 19.5 36Z" fill="#F2994A"/>
<path d="M32.7795 18.5992C31.2532 16.8664 29.1021 16 26.3266 16C23.6898 16 21.631 16.8912 20.1512 18.6715C18.7167 20.4043 18 22.8118 18 25.8917C18 27.1771 18.1195 28.3418 18.3545 29.3901C18.7974 29.1835 19.287 29.066 19.8039 29.066C21.7647 29.066 23.3544 30.7201 23.3544 32.7605C23.3544 33.6763 23.0324 34.5126 22.5021 35.1581C23.6179 35.7193 24.9158 36 26.3959 36C28.5698 36 30.3739 35.4472 31.8084 34.3394C33.2415 33.2812 34.2129 31.7401 34.7225 29.7184H31.2533C30.6982 29.7184 30.2699 29.8391 29.9696 30.0794C29.668 30.3208 29.4945 30.5126 29.449 30.657C29.3104 30.8014 29.1824 30.9346 29.0674 31.0542C28.9514 31.1749 28.8246 31.2594 28.6858 31.3069C28.1307 31.6442 27.4596 31.8123 26.6734 31.8123C25.47 31.8123 24.5681 31.4275 23.9674 30.657C23.3191 29.935 22.9721 28.8283 22.9267 27.3357H34.9308C34.9763 27.2398 35 27.0717 35 26.8303C35 26.7829 35 26.6859 35 26.5415C35 26.3971 35 26.229 35 26.0361C35 22.8592 34.2596 20.3806 32.7795 18.5992ZM22.9266 24.0866C22.972 22.8355 23.319 21.8732 23.9673 21.1985C24.6145 20.525 25.4472 20.1877 26.4653 20.1877C27.5756 20.1877 28.431 20.525 29.0328 21.1985C29.5879 21.8246 29.9108 22.787 30.0041 24.0866H22.9266Z" fill="white"/>
</svg>
