<svg width="18" height="19" viewBox="0 0 18 19" fill="none" xmlns="http://www.w3.org/2000/svg">
<rect y="0.5" width="18" height="18" rx="9" fill="white"/>
<path d="M6.12469 6.788C6.65269 6.788 7.10869 6.892 7.49269 7.1C7.88202 7.308 8.18335 7.61733 8.39669 8.028C8.61535 8.43333 8.72469 8.94 8.72469 9.548C8.72469 10.1987 8.59669 10.7533 8.34069 11.212C8.09002 11.6653 7.74069 12.012 7.29269 12.252C6.85002 12.492 6.33269 12.612 5.74069 12.612C5.43135 12.612 5.13269 12.5747 4.84469 12.5C4.55669 12.4307 4.30869 12.332 4.10069 12.204L4.67669 11.068C4.83669 11.18 5.00202 11.2573 5.17269 11.3C5.34869 11.3373 5.52735 11.356 5.70869 11.356C6.14069 11.356 6.48469 11.2253 6.74069 10.964C6.99669 10.7027 7.12469 10.3213 7.12469 9.82C7.12469 9.72933 7.12469 9.636 7.12469 9.54C7.12469 9.43867 7.11669 9.33733 7.10069 9.236L7.49269 9.564C7.39669 9.76133 7.27135 9.92667 7.11669 10.06C6.96202 10.1933 6.78069 10.2947 6.57269 10.364C6.36469 10.4333 6.12735 10.468 5.86069 10.468C5.50869 10.468 5.18602 10.396 4.89269 10.252C4.60469 10.1027 4.37269 9.89733 4.19669 9.636C4.02069 9.36933 3.93269 9.05733 3.93269 8.7C3.93269 8.31067 4.03135 7.97467 4.22869 7.692C4.42602 7.404 4.69002 7.18267 5.02069 7.028C5.35135 6.868 5.71935 6.788 6.12469 6.788ZM6.22869 7.916C6.07935 7.916 5.94869 7.94533 5.83669 8.004C5.72469 8.06267 5.63402 8.14533 5.56469 8.252C5.50069 8.35333 5.46869 8.47867 5.46869 8.628C5.46869 8.84133 5.53802 9.012 5.67669 9.14C5.82069 9.268 6.00735 9.332 6.23669 9.332C6.39135 9.332 6.52735 9.30267 6.64469 9.244C6.76202 9.18533 6.85269 9.10267 6.91669 8.996C6.98069 8.88933 7.01269 8.764 7.01269 8.62C7.01269 8.48133 6.98069 8.36133 6.91669 8.26C6.85269 8.15333 6.76202 8.07067 6.64469 8.012C6.52735 7.948 6.38869 7.916 6.22869 7.916ZM11.32 6.788C11.848 6.788 12.304 6.892 12.688 7.1C13.0773 7.308 13.3787 7.61733 13.592 8.028C13.8107 8.43333 13.92 8.94 13.92 9.548C13.92 10.1987 13.792 10.7533 13.536 11.212C13.2853 11.6653 12.936 12.012 12.488 12.252C12.0453 12.492 11.528 12.612 10.936 12.612C10.6267 12.612 10.328 12.5747 10.04 12.5C9.752 12.4307 9.504 12.332 9.296 12.204L9.872 11.068C10.032 11.18 10.1973 11.2573 10.368 11.3C10.544 11.3373 10.7227 11.356 10.904 11.356C11.336 11.356 11.68 11.2253 11.936 10.964C12.192 10.7027 12.32 10.3213 12.32 9.82C12.32 9.72933 12.32 9.636 12.32 9.54C12.32 9.43867 12.312 9.33733 12.296 9.236L12.688 9.564C12.592 9.76133 12.4667 9.92667 12.312 10.06C12.1573 10.1933 11.976 10.2947 11.768 10.364C11.56 10.4333 11.3227 10.468 11.056 10.468C10.704 10.468 10.3813 10.396 10.088 10.252C9.8 10.1027 9.568 9.89733 9.392 9.636C9.216 9.36933 9.128 9.05733 9.128 8.7C9.128 8.31067 9.22667 7.97467 9.424 7.692C9.62133 7.404 9.88533 7.18267 10.216 7.028C10.5467 6.868 10.9147 6.788 11.32 6.788ZM11.424 7.916C11.2747 7.916 11.144 7.94533 11.032 8.004C10.92 8.06267 10.8293 8.14533 10.76 8.252C10.696 8.35333 10.664 8.47867 10.664 8.628C10.664 8.84133 10.7333 9.012 10.872 9.14C11.016 9.268 11.2027 9.332 11.432 9.332C11.5867 9.332 11.7227 9.30267 11.84 9.244C11.9573 9.18533 12.048 9.10267 12.112 8.996C12.176 8.88933 12.208 8.764 12.208 8.62C12.208 8.48133 12.176 8.36133 12.112 8.26C12.048 8.15333 11.9573 8.07067 11.84 8.012C11.7227 7.948 11.584 7.916 11.424 7.916Z" fill="#141414"/>
</svg>
