<svg width="166" height="62" viewBox="0 0 166 62" fill="none" xmlns="http://www.w3.org/2000/svg">
<path d="M0 29.3404H10.7395C10.8432 31.4682 11.6328 33.0627 13.1086 34.1241C14.6878 35.188 16.7928 35.7186 19.4259 35.7186C21.3212 35.7186 22.9523 35.3475 24.3218 34.6025C25.5852 33.8599 26.2171 32.8485 26.2171 31.5727C26.2171 29.6591 24.006 28.2241 19.5839 27.2674C17.6886 26.9485 16.2673 26.6296 15.3197 26.3107C9.73773 24.9303 6.00171 23.2809 4.10642 21.3675C1.99901 19.4539 0.94773 16.9027 0.94773 13.7135C0.94773 9.67477 2.47278 6.32612 5.52776 3.66755C8.68645 1.22334 12.7927 0 17.8465 0C23.3199 0 27.6902 1.22334 30.9551 3.66755C34.0076 6.32595 35.6388 9.78177 35.8509 14.0324H29.0598C27.0585 14.0324 25.531 13.1304 24.4798 11.3216C24.0577 10.8979 23.6359 10.4719 23.2163 10.0459C21.9529 9.08924 20.2156 8.61089 18.0046 8.61089C15.8972 8.61089 14.3179 8.92979 13.2667 9.56759C12.3191 10.2054 11.8453 11.1621 11.8453 12.4379C11.8453 14.1396 14.582 15.5746 20.0578 16.7432C20.6895 16.9574 21.2425 17.1169 21.716 17.2216C22.1901 17.3288 22.6366 17.381 23.0586 17.381C28.4283 18.7638 32.1644 20.3583 34.2719 22.1648C36.2707 24.0783 37.2726 26.6296 37.2726 29.8188C37.2726 34.4977 35.5872 38.1106 32.2188 40.662C29.0601 43.0015 24.3222 44.1701 18.0048 44.1701C12.0032 44.1701 7.52694 42.9492 4.58038 40.5025C1.52506 38.0583 0 34.4977 0 29.8188V29.3404Z" fill="#141414"/>
<path d="M69.0359 30.2971H76.9325C75.7727 34.7619 73.5617 38.1653 70.2993 40.5025C67.0346 42.9492 62.9282 44.1701 57.9805 44.1701C51.979 44.1701 47.293 42.2042 43.9244 38.27C40.5536 34.443 38.8706 28.9691 38.8706 21.8459C38.8706 15.0438 40.5018 9.72705 43.7665 5.90004C47.1349 1.96832 51.8211 0 57.8226 0C64.14 0 69.0359 1.91359 72.5104 5.74059C75.8788 9.67477 77.5642 15.1486 77.5642 22.1648C77.5642 22.5908 77.5642 22.962 77.5642 23.2809C77.5642 23.5998 77.5642 23.814 77.5642 23.9187C77.5642 24.4518 77.51 24.8232 77.4063 25.0349H50.0839C50.1876 28.3313 50.9772 30.7755 52.4529 32.37C53.8201 34.0717 55.8733 34.9214 58.6124 34.9214C60.4015 34.9214 61.929 34.5502 63.1924 33.8052C63.5083 33.7005 63.7969 33.5139 64.0609 33.2472C64.3226 32.9831 64.6138 32.6891 64.9296 32.37C65.0333 32.0511 65.4281 31.6275 66.1143 31.0944C66.7975 30.5637 67.7725 30.2971 69.0359 30.2971ZM50.0839 17.8594H66.193C65.9809 14.9891 65.2455 12.8638 63.9819 11.481C62.6123 9.9935 60.6653 9.24852 58.1383 9.24852C55.8212 9.24852 53.9259 9.9935 52.4526 11.481C50.9772 12.9708 50.1876 15.0961 50.0839 17.8594Z" fill="#141414"/>
<path d="M80.1104 43.3725V22.8024C80.1104 18.6565 80.7148 15.1759 81.9264 12.3577C83.1356 9.54252 84.7941 7.28267 86.9015 5.5808C88.9003 3.98629 91.2447 2.81768 93.9295 2.0727C96.6146 1.33017 99.3789 0.956543 102.221 0.956543C102.431 0.956543 102.695 0.956543 103.011 0.956543C103.326 0.956543 103.588 0.956543 103.801 0.956543V12.2781H100.168C97.1127 12.2781 94.8503 13.0231 93.3768 14.5106C91.9011 16.0006 91.1657 18.3376 91.1657 21.5268V43.3727H80.1104V43.3725Z" fill="#141414"/>
<path d="M107.757 0.956543H113.443C114.916 0.956543 116.18 1.48962 117.233 2.55105C118.285 3.61494 118.813 4.89055 118.813 6.37805V43.3725H107.757V0.956543Z" fill="#141414"/>
<path d="M127.635 43.6173C131.112 43.6173 133.931 40.7712 133.931 37.2603C133.931 33.7494 131.112 30.9033 127.635 30.9033C124.158 30.9033 121.339 33.7494 121.339 37.2603C121.339 40.7712 124.158 43.6173 127.635 43.6173Z" fill="#F2994A"/>
<path d="M157.716 5.74042C154.242 1.91341 149.346 0 143.028 0C137.027 0 132.341 1.96832 128.972 5.90004C125.707 9.72705 124.076 15.044 124.076 21.8459C124.076 24.6848 124.348 27.257 124.883 29.5721C125.891 29.1159 127.006 28.8564 128.182 28.8564C132.645 28.8564 136.263 32.5094 136.263 37.0158C136.263 39.0383 135.53 40.8853 134.323 42.3109C136.863 43.5503 139.817 44.1702 143.186 44.1702C148.134 44.1702 152.24 42.9494 155.505 40.5027C158.767 38.1657 160.978 34.7621 162.138 30.2973H154.242C152.978 30.2973 152.004 30.5639 151.32 31.0946C150.634 31.6276 150.239 32.0513 150.135 32.3702C149.82 32.6891 149.528 32.9832 149.266 33.2474C149.002 33.514 148.714 33.7007 148.398 33.8054C147.135 34.5504 145.607 34.9216 143.818 34.9216C141.078 34.9216 139.026 34.0718 137.658 32.3702C136.183 30.7756 135.393 28.3314 135.29 25.0351H162.612C162.716 24.8233 162.77 24.452 162.77 23.9189C162.77 23.8142 162.77 23.6 162.77 23.2811C162.77 22.9622 162.77 22.5908 162.77 22.1649C162.77 15.1486 161.084 9.6746 157.716 5.74042ZM135.29 17.8594C135.393 15.0963 136.183 12.971 137.658 11.481C139.131 9.9935 141.027 9.24852 143.344 9.24852C145.871 9.24852 147.818 9.9935 149.188 11.481C150.451 12.8638 151.186 14.9891 151.398 17.8594H135.29Z" fill="#141414"/>
<path d="M129.875 48.7959V54.7177C129.875 57.1698 128.607 58.3879 126.087 58.3726C123.582 58.3265 122.33 56.9539 122.33 54.2397C122.33 51.4639 123.399 50.0452 125.553 49.968C126.561 49.968 127.34 50.3843 127.859 51.2326V47.7627H128.867C129.417 47.7629 129.875 48.241 129.875 48.7959ZM124.423 54.1471C124.407 55.7972 124.957 56.6302 126.118 56.6302C127.279 56.6302 127.859 55.7974 127.859 54.1471C127.813 52.5743 127.248 51.8032 126.148 51.8032C125.049 51.8034 124.484 52.5745 124.423 54.1471Z" fill="#141414"/>
<path d="M134.549 58.4346C132.105 58.3574 130.883 56.9234 130.883 54.1473C130.883 51.3716 132.121 49.9835 134.58 49.9683C137.146 49.9683 138.352 51.5566 138.2 54.749H132.976C133.052 55.9979 133.587 56.6303 134.58 56.6303C135.053 56.6303 135.496 56.4298 135.893 56.0442C136.076 55.8437 136.305 55.7513 136.581 55.7513H138.077C137.634 57.4782 136.535 58.4346 134.549 58.4346ZM133.006 53.2838H136.045C135.924 52.2043 135.42 51.6489 134.549 51.6489C133.678 51.6491 133.159 52.2043 133.006 53.2838Z" fill="#141414"/>
<path d="M142.828 56.7691C143.683 56.7691 144.111 56.5224 144.111 55.9979C144.111 55.5817 143.408 55.2424 142.018 54.9956C140.231 54.6718 139.315 53.87 139.299 52.59C139.299 50.8318 140.674 49.999 142.522 49.9683C143.561 49.9683 144.386 50.1995 144.997 50.6622C145.592 51.1404 145.913 51.8034 145.959 52.6516H144.676C144.202 52.6361 143.897 52.4665 143.775 52.1427C143.637 51.7882 143.225 51.5877 142.552 51.5877C141.758 51.5877 141.361 51.8034 141.361 52.2199C141.361 52.6363 141.88 52.9599 142.935 53.1604C144.309 53.4381 145.21 53.7928 145.653 54.2092C146.035 54.6102 146.218 55.1037 146.218 55.6589C146.218 57.6635 144.66 58.4039 142.522 58.4039C141.392 58.4039 140.536 58.1571 139.986 57.6789C139.376 57.2165 139.07 56.5068 139.07 55.5662H141.147C141.194 56.4605 141.835 56.7691 142.828 56.7691Z" fill="#141414"/>
<path d="M148.312 47.7627C148.984 47.7627 149.305 48.1018 149.289 48.765V49.3665H147.258V47.7627H148.312ZM148.312 50.0911C148.969 50.0911 149.289 50.4151 149.289 51.0782V58.2493H147.258V50.0913H148.312V50.0911Z" fill="#141414"/>
<path d="M150.466 54.1779C150.466 51.4635 151.718 50.1063 154.223 50.0602C156.743 50.0448 158.011 51.2476 158.011 53.6997V58.5265C158.011 60.5776 156.728 61.6106 154.147 61.6571C152.314 61.6571 151.153 60.7934 150.68 59.0661H152.925C153.062 59.6522 153.536 59.9298 154.376 59.9298C155.445 59.9298 155.995 59.2976 155.995 58.0331C155.995 58.0331 155.995 58.0485 155.995 57.2002C155.475 58.002 154.696 58.4034 153.688 58.4034C151.535 58.4034 150.466 56.9845 150.466 54.1779ZM155.995 54.2394C156.01 52.5895 155.445 51.7721 154.284 51.7721C153.123 51.7721 152.558 52.5897 152.558 54.2394C152.605 55.8124 153.154 56.5989 154.254 56.5989C155.354 56.5989 155.934 55.8124 155.995 54.2394Z" fill="#141414"/>
<path d="M164.962 58.2491C164.289 58.2029 163.954 57.8789 163.954 57.2313V53.0366C163.907 52.1887 163.449 51.7721 162.548 51.7721C161.647 51.7721 161.189 52.1887 161.173 53.0366V58.2491H159.111V53.4529C159.111 51.1245 160.272 49.9678 162.578 49.9678C164.885 49.9678 166.016 51.1245 166 53.4529V58.2491H164.962Z" fill="#141414"/>
</svg>
