<svg width="105" height="39" viewBox="0 0 105 39" fill="none" xmlns="http://www.w3.org/2000/svg">
<path d="M0 18.5587H6.79305C6.85866 19.9046 7.35812 20.9131 8.29156 21.5845C9.29049 22.2575 10.622 22.5931 12.2875 22.5931C13.4863 22.5931 14.518 22.3583 15.3843 21.8871C16.1834 21.4174 16.5831 20.7777 16.5831 19.9707C16.5831 18.7603 15.1845 17.8526 12.3874 17.2474C11.1886 17.0457 10.2895 16.844 9.69017 16.6423C6.15941 15.7692 3.79626 14.7259 2.59744 13.5156C1.26443 12.3052 0.599468 10.6915 0.599468 8.6742C0.599468 6.11958 1.56411 4.00146 3.49647 2.31984C5.49444 0.773797 8.09177 0 11.2885 0C14.7505 0 17.5149 0.773797 19.58 2.31984C21.5108 4.00135 22.5426 6.18727 22.6768 8.87592H18.3812C17.1153 8.87592 16.1491 8.30539 15.4842 7.16123C15.2173 6.89327 14.9504 6.62376 14.685 6.35436C13.8859 5.74922 12.787 5.44665 11.3885 5.44665C10.0555 5.44665 9.05652 5.64836 8.39156 6.05179C7.7922 6.45522 7.49252 7.06037 7.49252 7.86734C7.49252 8.94371 9.22356 9.85143 12.6872 10.5906C13.0868 10.7261 13.4365 10.8269 13.736 10.8932C14.0359 10.961 14.3183 10.994 14.5853 10.994C17.9817 11.8687 20.345 12.8773 21.678 14.0199C22.9423 15.2303 23.5761 16.844 23.5761 18.8613C23.5761 21.8209 22.51 24.1061 20.3794 25.7199C18.3814 27.1997 15.3845 27.9389 11.3886 27.9389C7.59242 27.9389 4.76102 27.1667 2.89723 25.6191C0.964643 24.073 0 21.8209 0 18.8613V18.5587Z" fill="white"/>
<path d="M43.6674 19.1638H48.6622C47.9286 21.988 46.5301 24.1407 44.4665 25.6191C42.4015 27.1667 39.8041 27.9389 36.6745 27.9389C32.8784 27.9389 29.9143 26.6954 27.7836 24.2069C25.6515 21.7862 24.5869 18.3238 24.5869 13.8182C24.5869 9.51568 25.6187 6.15265 27.6837 3.73195C29.8143 1.24502 32.7785 0 36.5746 0C40.5706 0 43.6674 1.2104 45.8651 3.6311C47.9957 6.11958 49.0618 9.58192 49.0618 14.0199C49.0618 14.2894 49.0618 14.5242 49.0618 14.7259C49.0618 14.9276 49.0618 15.0631 49.0618 15.1293C49.0618 15.4665 49.0275 15.7014 48.9619 15.8353H31.6796C31.7453 17.9204 32.2447 19.4664 33.1782 20.475C34.0429 21.5514 35.3416 22.0888 37.0742 22.0888C38.2059 22.0888 39.1721 21.854 39.9712 21.3828C40.171 21.3166 40.3535 21.1985 40.5206 21.0299C40.6861 20.8628 40.8702 20.6768 41.07 20.475C41.1356 20.2733 41.3853 20.0053 41.8194 19.6681C42.2515 19.3325 42.8682 19.1638 43.6674 19.1638ZM31.6796 11.2966H41.8692C41.735 9.48106 41.2698 8.13674 40.4706 7.26208C39.6043 6.32119 38.3727 5.84997 36.7743 5.84997C35.3087 5.84997 34.1098 6.32119 33.1779 7.26208C32.2447 8.20442 31.7453 9.54875 31.6796 11.2966Z" fill="white"/>
<path d="M50.6724 27.4346V14.4234C50.6724 11.801 51.0547 9.59942 51.8211 7.81682C52.5859 6.03612 53.635 4.60669 54.968 3.53021C56.2323 2.52163 57.7152 1.78245 59.4134 1.31123C61.1118 0.841558 62.8603 0.605225 64.658 0.605225C64.7906 0.605225 64.9576 0.605225 65.1577 0.605225C65.3572 0.605225 65.5228 0.605225 65.6574 0.605225V7.76645H63.3592C61.4268 7.76645 59.9958 8.23767 59.0638 9.17857C58.1304 10.121 57.6652 11.5993 57.6652 13.6165V27.4347H50.6724V27.4346Z" fill="white"/>
<path d="M68.1597 0.605225H71.756C72.6877 0.605225 73.487 0.942415 74.1536 1.6138C74.8186 2.28674 75.1525 3.0936 75.1525 4.03449V27.4346H68.1597V0.605225Z" fill="white"/>
<path d="M80.733 27.5893C82.9325 27.5893 84.7155 25.7891 84.7155 23.5684C84.7155 21.3476 82.9325 19.5474 80.733 19.5474C78.5335 19.5474 76.7505 21.3476 76.7505 23.5684C76.7505 25.7891 78.5335 27.5893 80.733 27.5893Z" fill="#F2994A"/>
<path d="M99.7599 3.63099C97.5625 1.21029 94.4656 0 90.4696 0C86.6735 0 83.7094 1.24502 81.5789 3.73195C79.5137 6.15265 78.4819 9.51579 78.4819 13.8182C78.4819 15.6139 78.6539 17.2409 78.9923 18.7053C79.63 18.4167 80.3348 18.2526 81.0789 18.2526C83.902 18.2526 86.1906 20.5632 86.1906 23.4136C86.1906 24.6929 85.727 25.8612 84.9635 26.7629C86.57 27.5469 88.4386 27.939 90.5694 27.939C93.6992 27.939 96.2965 27.1668 98.3617 25.6192C100.425 24.1409 101.823 21.9881 102.557 19.1639H97.5626C96.7634 19.1639 96.1468 19.3326 95.7144 19.6682C95.2803 20.0054 95.0305 20.2734 94.9649 20.4751C94.7655 20.6768 94.5812 20.8629 94.4156 21.03C94.2485 21.1986 94.066 21.3167 93.8662 21.3829C93.0671 21.8542 92.1009 22.0889 90.969 22.0889C89.2364 22.0889 87.9379 21.5515 87.0732 20.4751C86.1397 19.4665 85.6402 17.9205 85.5749 15.8354H102.857C102.923 15.7015 102.957 15.4666 102.957 15.1294C102.957 15.0632 102.957 14.9277 102.957 14.726C102.957 14.5243 102.957 14.2894 102.957 14.02C102.957 9.58192 101.891 6.11947 99.7599 3.63099ZM85.5748 11.2966C85.64 9.54886 86.1396 8.20453 87.0731 7.26208C88.0047 6.32119 89.2036 5.84997 90.6694 5.84997C92.2678 5.84997 93.4994 6.32119 94.3658 7.26208C95.1649 8.13674 95.6298 9.48106 95.7641 11.2966H85.5748Z" fill="white"/>
<path d="M82.1499 30.8649V34.6107C82.1499 36.1617 81.348 36.9322 79.754 36.9225C78.1694 36.8933 77.3774 36.0251 77.3774 34.3083C77.3774 32.5526 78.0536 31.6552 79.416 31.6063C80.0536 31.6063 80.5461 31.8696 80.8747 32.4062V30.2114H81.5123C81.8602 30.2115 82.1499 30.514 82.1499 30.8649ZM78.701 34.2497C78.6912 35.2935 79.039 35.8204 79.7733 35.8204C80.5076 35.8204 80.8748 35.2936 80.8748 34.2497C80.8457 33.2549 80.4884 32.7672 79.7927 32.7672C79.0972 32.7673 78.7396 33.255 78.701 34.2497Z" fill="white"/>
<path d="M85.1063 36.9617C83.5604 36.9128 82.7876 36.0058 82.7876 34.2498C82.7876 32.4941 83.5702 31.6161 85.1257 31.6064C86.7487 31.6064 87.512 32.6111 87.4154 34.6304H84.1111C84.1595 35.4204 84.4975 35.8204 85.1257 35.8204C85.4252 35.8204 85.7055 35.6936 85.9566 35.4497C86.0722 35.3229 86.2172 35.2644 86.3913 35.2644H87.3379C87.0576 36.3567 86.3622 36.9617 85.1063 36.9617ZM84.1303 33.7036H86.0528C85.9758 33.0208 85.657 32.6695 85.1062 32.6695C84.5555 32.6696 84.227 33.0208 84.1303 33.7036Z" fill="white"/>
<path d="M90.3431 35.9081C90.884 35.9081 91.1544 35.7521 91.1544 35.4204C91.1544 35.1571 90.7102 34.9425 89.8309 34.7864C88.7007 34.5816 88.1209 34.0744 88.1111 33.2648C88.1111 32.1527 88.9806 31.6259 90.1497 31.6064C90.8068 31.6064 91.3285 31.7527 91.7149 32.0454C92.0915 32.3478 92.2947 32.7673 92.3233 33.3037H91.512C91.2124 33.294 91.0191 33.1867 90.942 32.9818C90.8547 32.7576 90.5941 32.6308 90.1688 32.6308C89.6665 32.6308 89.4152 32.7673 89.4152 33.0307C89.4152 33.2941 89.7438 33.4988 90.4105 33.6256C91.28 33.8012 91.85 34.0256 92.1303 34.289C92.3716 34.5426 92.4876 34.8547 92.4876 35.2059C92.4876 36.4739 91.5022 36.9422 90.1496 36.9422C89.4346 36.9422 88.8937 36.7861 88.5458 36.4837C88.1594 36.1912 87.9663 35.7423 87.9663 35.1473H89.28C89.3093 35.713 89.7149 35.9081 90.3431 35.9081Z" fill="white"/>
<path d="M93.8116 30.2114C94.2369 30.2114 94.4397 30.4259 94.43 30.8454V31.2259H93.145V30.2114H93.8116ZM93.8116 31.6842C94.2271 31.6842 94.43 31.8892 94.43 32.3086V36.8445H93.145V31.6844H93.8116V31.6842Z" fill="white"/>
<path d="M95.1743 34.2692C95.1743 32.5523 95.9664 31.6938 97.5509 31.6646C99.1449 31.6549 99.9468 32.4157 99.9468 33.9667V37.0198C99.9468 38.3172 99.1354 38.9706 97.5025 39C96.3433 39 95.6091 38.4537 95.3095 37.3611H96.7296C96.8166 37.7318 97.116 37.9075 97.6475 37.9075C98.3236 37.9075 98.6714 37.5076 98.6714 36.7077C98.6714 36.7077 98.6714 36.7175 98.6714 36.1809C98.3429 36.6881 97.8503 36.942 97.2127 36.942C95.8505 36.942 95.1743 36.0444 95.1743 34.2692ZM98.6717 34.3081C98.6811 33.2645 98.3237 32.7474 97.5896 32.7474C96.8552 32.7474 96.498 33.2646 96.498 34.3081C96.5271 35.3031 96.8746 35.8006 97.5703 35.8006C98.2661 35.8006 98.6331 35.3031 98.6717 34.3081Z" fill="white"/>
<path d="M104.343 36.8444C103.918 36.8152 103.705 36.6102 103.705 36.2006V33.5473C103.676 33.011 103.386 32.7475 102.816 32.7475C102.246 32.7475 101.957 33.011 101.947 33.5473V36.8444H100.643V33.8106C100.643 32.3378 101.377 31.6062 102.836 31.6062C104.295 31.6062 105.01 32.3378 105 33.8106V36.8444H104.343Z" fill="white"/>
</svg>
